<svg width="24" height="12" viewBox="0 0 24 12" fill="none" xmlns="http://www.w3.org/2000/svg">
<path d="M0.624 1.94C0.328 1.94 0.18 1.796 0.18 1.508C0.18 1.396 0.264 1.304 0.432 1.232C0.6 1.152 0.82 1.088 1.092 1.04C1.372 0.984 1.668 0.944 1.98 0.92C2.3 0.895999 2.608 0.879999 2.904 0.872C3.2 0.856 3.46 0.848 3.684 0.848C3.908 0.84 4.056 0.836 4.128 0.836H4.788C5.404 0.836 6.028 0.848 6.66 0.872C7.292 0.896 7.9 0.964 8.484 1.076C8.516 1.084 8.572 1.1 8.652 1.124C8.74 1.14 8.82 1.168 8.892 1.208C8.972 1.24 9.012 1.284 9.012 1.34C9.012 1.38 8.976 1.408 8.904 1.424C8.84 1.432 8.784 1.436 8.736 1.436C8.632 1.436 8.524 1.428 8.412 1.412C8.3 1.396 8.188 1.38 8.076 1.364C7.748 1.308 7.408 1.276 7.056 1.268C6.712 1.26 6.368 1.256 6.024 1.256C5.416 1.256 4.804 1.268 4.188 1.292C3.572 1.308 2.96 1.352 2.352 1.424C2.336 1.488 2.252 1.552 2.1 1.616C1.948 1.68 1.768 1.736 1.56 1.784C1.36 1.832 1.168 1.872 0.984 1.904C0.808 1.928 0.688 1.94 0.624 1.94ZM1.596 8.78C1.42 8.78 1.296 8.716 1.224 8.588C1.152 8.468 1.116 8.324 1.116 8.156C1.116 7.884 1.176 7.56 1.296 7.184C1.416 6.8 1.572 6.396 1.764 5.972C1.956 5.54 2.16 5.116 2.376 4.7C2.592 4.276 2.796 3.892 2.988 3.548C3.18 3.196 3.34 2.912 3.468 2.696C3.564 2.528 3.664 2.348 3.768 2.156C3.872 1.956 3.984 1.78 4.104 1.628C4.144 1.572 4.212 1.536 4.308 1.52C4.404 1.504 4.48 1.496 4.536 1.496C4.6 1.496 4.672 1.508 4.752 1.532C4.832 1.556 4.876 1.612 4.884 1.7C4.884 1.764 4.868 1.828 4.836 1.892C4.812 1.948 4.784 2 4.752 2.048C4.392 2.632 4.032 3.192 3.672 3.728C3.312 4.264 2.976 4.84 2.664 5.456C2.6 5.584 2.504 5.764 2.376 5.996C2.248 6.22 2.116 6.468 1.98 6.74C1.852 7.012 1.74 7.28 1.644 7.544C1.556 7.808 1.512 8.04 1.512 8.24C1.512 8.272 1.516 8.324 1.524 8.396C1.54 8.468 1.584 8.504 1.656 8.504C1.696 8.504 1.716 8.54 1.716 8.612C1.716 8.652 1.704 8.688 1.68 8.72C1.664 8.76 1.636 8.78 1.596 8.78ZM7.08422 8.108C7.01222 8.108 6.92822 8.076 6.83222 8.012C6.74422 7.948 6.66822 7.876 6.60422 7.796C6.54022 7.708 6.50822 7.628 6.50822 7.556C6.50822 7.436 6.55222 7.276 6.64022 7.076C6.72822 6.868 6.82822 6.664 6.94022 6.464C7.06022 6.264 7.15222 6.116 7.21622 6.02C7.10422 6.116 6.96022 6.272 6.78422 6.488C6.61622 6.696 6.43222 6.92 6.23222 7.16C6.04022 7.392 5.85222 7.592 5.66822 7.76C5.49222 7.928 5.34022 8.012 5.21222 8.012C5.03622 8.012 4.89222 7.952 4.78022 7.832C4.67622 7.704 4.62422 7.552 4.62422 7.376C4.62422 7.136 4.69222 6.88 4.82822 6.608C4.96422 6.328 5.14022 6.06 5.35622 5.804C5.58022 5.54 5.82022 5.3 6.07622 5.084C6.34022 4.868 6.59622 4.696 6.84422 4.568C7.10022 4.44 7.32822 4.376 7.52822 4.376C7.74422 4.376 7.92022 4.428 8.05622 4.532C8.19222 4.628 8.26022 4.776 8.26022 4.976C8.26022 5.008 8.25222 5.068 8.23622 5.156C8.22822 5.244 8.20022 5.288 8.15222 5.288C8.12822 5.288 8.08822 5.252 8.03222 5.18C7.98422 5.108 7.91622 5.036 7.82822 4.964C7.74022 4.892 7.62822 4.856 7.49222 4.856C7.26822 4.856 7.03222 4.94 6.78422 5.108C6.54422 5.268 6.31222 5.476 6.08822 5.732C5.86422 5.98 5.66822 6.236 5.50022 6.5C5.33222 6.764 5.20422 6.992 5.11622 7.184C5.09222 7.24 5.06822 7.3 5.04422 7.364C5.02822 7.428 5.02022 7.492 5.02022 7.556C5.02022 7.628 5.04022 7.664 5.08022 7.664C5.12022 7.664 5.20422 7.62 5.33222 7.532C5.46822 7.444 5.56422 7.38 5.62022 7.34C5.90022 7.14 6.16422 6.912 6.41222 6.656C6.66822 6.4 6.89622 6.136 7.09622 5.864C7.16022 5.776 7.22022 5.688 7.27622 5.6C7.33222 5.512 7.38822 5.428 7.44422 5.348C7.48422 5.292 7.52422 5.264 7.56422 5.264C7.65222 5.264 7.73622 5.324 7.81622 5.444C7.90422 5.564 7.94822 5.668 7.94822 5.756C7.94822 5.796 7.94022 5.82 7.92422 5.828C7.91622 5.836 7.89222 5.86 7.85222 5.9C7.73222 6.02 7.61222 6.188 7.49222 6.404C7.38022 6.62 7.28022 6.84 7.19222 7.064C7.11222 7.28 7.05222 7.464 7.01222 7.616C7.00422 7.64 6.99622 7.672 6.98822 7.712C6.98822 7.744 7.00822 7.756 7.04822 7.748C7.12822 7.724 7.25622 7.636 7.43222 7.484C7.61622 7.324 7.81222 7.144 8.02022 6.944C8.23622 6.736 8.42822 6.544 8.59622 6.368C8.77222 6.192 8.88822 6.068 8.94422 5.996C8.96022 5.98 8.97622 5.964 8.99222 5.948C9.01622 5.924 9.04022 5.912 9.06422 5.912C9.12022 5.912 9.14822 5.94 9.14822 5.996C9.14822 6.028 9.08422 6.124 8.95622 6.284C8.82822 6.436 8.66822 6.616 8.47622 6.824C8.28422 7.024 8.08822 7.224 7.88822 7.424C7.68822 7.616 7.51222 7.78 7.36022 7.916C7.21622 8.044 7.12422 8.108 7.08422 8.108ZM9.02166 8C8.86966 8 8.72566 7.92 8.58966 7.76C8.46166 7.6 8.39766 7.448 8.39766 7.304C8.39766 7.264 8.40166 7.232 8.40966 7.208C8.55366 6.824 8.73766 6.472 8.96166 6.152C9.19366 5.824 9.42166 5.492 9.64566 5.156C9.65366 5.148 9.65766 5.136 9.65766 5.12C9.65766 5.096 9.65366 5.076 9.64566 5.06C9.63766 5.036 9.63366 5.012 9.63366 4.988C9.63366 4.908 9.68166 4.824 9.77766 4.736C9.88166 4.648 9.99366 4.572 10.1137 4.508C10.2417 4.444 10.3417 4.412 10.4137 4.412C10.5017 4.412 10.5857 4.444 10.6657 4.508C10.7537 4.564 10.7977 4.64 10.7977 4.736C10.7177 4.8 10.6017 4.912 10.4497 5.072C10.2977 5.232 10.1337 5.416 9.95766 5.624C9.78966 5.824 9.62566 6.032 9.46566 6.248C9.31366 6.456 9.18566 6.652 9.08166 6.836C8.98566 7.012 8.93766 7.148 8.93766 7.244C8.93766 7.324 8.97366 7.364 9.04566 7.364C9.12566 7.364 9.24166 7.308 9.39366 7.196C9.55366 7.076 9.72566 6.928 9.90966 6.752C10.0937 6.576 10.2737 6.392 10.4497 6.2C10.6257 6.008 10.7817 5.836 10.9177 5.684C11.0617 5.524 11.1617 5.408 11.2177 5.336C11.3057 5.208 11.3937 5.092 11.4817 4.988C11.5777 4.876 11.6897 4.724 11.8177 4.532C11.8817 4.452 11.9497 4.384 12.0217 4.328C12.0937 4.264 12.1697 4.232 12.2497 4.232C12.2897 4.232 12.3497 4.252 12.4297 4.292C12.5097 4.332 12.5737 4.376 12.6217 4.424C12.6697 4.464 12.6937 4.512 12.6937 4.568C12.6937 4.64 12.6657 4.696 12.6097 4.736C12.5137 4.856 12.3937 5.024 12.2497 5.24C12.1137 5.448 11.9777 5.676 11.8417 5.924C11.7137 6.164 11.6057 6.392 11.5177 6.608C11.4297 6.824 11.3857 6.992 11.3857 7.112C11.3857 7.224 11.4177 7.284 11.4817 7.292C11.5777 7.284 11.7177 7.2 11.9017 7.04C12.0857 6.88 12.2857 6.68 12.5017 6.44C12.7257 6.192 12.9417 5.94 13.1497 5.684C13.3577 5.42 13.5377 5.188 13.6897 4.988C13.7137 4.844 13.7337 4.712 13.7497 4.592C13.7737 4.464 13.8217 4.316 13.8937 4.148C13.9337 4.06 13.9857 3.988 14.0497 3.932C14.1137 3.868 14.1937 3.836 14.2897 3.836C14.3777 3.836 14.4577 3.864 14.5297 3.92C14.6097 3.976 14.6497 4.048 14.6497 4.136C14.6497 4.24 14.6097 4.336 14.5297 4.424C14.4497 4.512 14.3697 4.624 14.2897 4.76C14.2097 4.896 14.1697 5.088 14.1697 5.336V5.384C14.1697 5.416 14.1657 5.456 14.1577 5.504C14.1497 5.552 14.1257 5.576 14.0857 5.576C14.0297 5.576 13.9697 5.544 13.9057 5.48C13.8417 5.416 13.8057 5.356 13.7977 5.3C13.5977 5.524 13.3817 5.784 13.1497 6.08C12.9257 6.376 12.7017 6.664 12.4777 6.944C12.2617 7.216 12.0577 7.452 11.8657 7.652C11.6817 7.844 11.5257 7.956 11.3977 7.988C11.3657 7.996 11.3257 8 11.2777 8C11.1897 8 11.1057 7.98 11.0257 7.94C10.9457 7.9 10.8697 7.828 10.7977 7.724C10.7897 7.708 10.7857 7.688 10.7857 7.664C10.7857 7.64 10.7817 7.62 10.7737 7.604C10.7657 7.572 10.7537 7.54 10.7377 7.508C10.7297 7.468 10.7257 7.428 10.7257 7.388C10.7257 7.204 10.7777 6.988 10.8817 6.74C10.9937 6.492 11.1177 6.24 11.2537 5.984C11.3897 5.728 11.5017 5.504 11.5897 5.312C11.1337 5.84 10.7217 6.304 10.3537 6.704C9.99366 7.096 9.64566 7.48 9.30966 7.856C9.26966 7.896 9.22566 7.932 9.17766 7.964C9.13766 7.988 9.08566 8 9.02166 8ZM13.7682 10.904C13.2322 10.904 12.9642 10.62 12.9642 10.052C12.9642 9.78 13.0322 9.42 13.1682 8.972C13.3682 8.34 13.6242 7.716 13.9362 7.1C14.2562 6.484 14.6082 5.884 14.9922 5.3H14.4522C14.3402 5.3 14.2842 5.276 14.2842 5.228C14.2842 5.172 14.3402 5.112 14.4522 5.048C14.5722 4.984 14.7002 4.952 14.8362 4.952H15.2202C15.3802 4.712 15.5442 4.472 15.7122 4.232C15.8802 3.992 16.0522 3.756 16.2282 3.524C16.5242 3.124 16.8362 2.736 17.1642 2.36C17.4922 1.976 17.8202 1.664 18.1482 1.424C18.4842 1.176 18.8002 1.052 19.0962 1.052C19.2322 1.052 19.3562 1.08 19.4682 1.136C19.7082 1.24 19.8282 1.4 19.8282 1.616C19.8282 1.744 19.7722 1.892 19.6602 2.06C19.5482 2.22 19.4002 2.32 19.2162 2.36C19.2002 2.368 19.1802 2.372 19.1562 2.372C19.1162 2.372 19.0962 2.356 19.0962 2.324C19.0962 2.276 19.1562 2.18 19.2762 2.036C19.4202 1.852 19.4922 1.692 19.4922 1.556C19.4922 1.396 19.4082 1.316 19.2402 1.316C19.1122 1.316 18.9442 1.38 18.7362 1.508C18.5282 1.628 18.2882 1.836 18.0162 2.132C17.6482 2.556 17.2962 3.004 16.9602 3.476C16.6322 3.94 16.3042 4.432 15.9762 4.952H17.6202C17.8602 4.952 18.0962 4.924 18.3282 4.868C18.5682 4.812 18.7842 4.748 18.9762 4.676C19.1682 4.604 19.3202 4.54 19.4322 4.484C19.5442 4.428 19.5922 4.4 19.5762 4.4C19.6242 4.4 19.6962 4.412 19.7922 4.436C19.8962 4.452 19.9802 4.484 20.0442 4.532C20.1162 4.58 20.1282 4.64 20.0802 4.712C20.0242 4.8 19.9282 4.944 19.7922 5.144C19.6562 5.344 19.5002 5.572 19.3242 5.828C19.1562 6.084 18.9882 6.344 18.8202 6.608C18.6602 6.864 18.5282 7.096 18.4242 7.304C18.3202 7.512 18.2682 7.668 18.2682 7.772C18.2682 7.82 18.2842 7.844 18.3162 7.844C18.3642 7.844 18.4442 7.8 18.5562 7.712C18.6762 7.624 18.7922 7.532 18.9042 7.436C19.0242 7.332 19.1042 7.264 19.1442 7.232C19.3762 7.032 19.6042 6.828 19.8282 6.62C20.0522 6.404 20.2642 6.18 20.4642 5.948C20.4802 5.932 20.5002 5.908 20.5242 5.876C20.5562 5.844 20.5882 5.828 20.6202 5.828C20.6602 5.828 20.6802 5.852 20.6802 5.9C20.6802 5.956 20.6602 6.012 20.6202 6.068C20.5162 6.196 20.4002 6.324 20.2722 6.452C20.1442 6.572 20.0242 6.692 19.9122 6.812C19.7042 7.02 19.5002 7.228 19.3002 7.436C19.1082 7.636 18.9162 7.844 18.7242 8.06C18.6842 8.108 18.6322 8.152 18.5682 8.192C18.5122 8.232 18.4522 8.252 18.3882 8.252C18.2602 8.252 18.1402 8.2 18.0282 8.096C17.9242 7.992 17.8602 7.88 17.8362 7.76C17.8602 7.608 17.9282 7.404 18.0402 7.148C18.1602 6.892 18.2962 6.624 18.4482 6.344C18.6002 6.056 18.7482 5.788 18.8922 5.54C19.0362 5.292 19.1482 5.104 19.2282 4.976C18.9562 5.064 18.6682 5.14 18.3642 5.204C18.0682 5.268 17.7322 5.3 17.3562 5.3H15.8922C15.9082 5.316 15.9202 5.324 15.9282 5.324C16.3202 5.356 16.6002 5.496 16.7682 5.744C16.9362 5.992 17.0202 6.296 17.0202 6.656C17.0202 6.984 16.9562 7.34 16.8282 7.724C16.7082 8.108 16.5402 8.488 16.3242 8.864C16.1162 9.24 15.8722 9.58 15.5922 9.884C15.3122 10.196 15.0162 10.444 14.7042 10.628C14.3922 10.812 14.0802 10.904 13.7682 10.904ZM20.3082 3.476C20.1242 3.476 20.0322 3.408 20.0322 3.272C20.0322 3.176 20.0842 3.072 20.1882 2.96C20.2922 2.848 20.4442 2.768 20.6442 2.72C20.7642 2.688 20.8602 2.672 20.9322 2.672C21.0122 2.664 21.0882 2.648 21.1602 2.624C21.1282 2.776 21.0602 2.94 20.9562 3.116C20.8602 3.292 20.7322 3.4 20.5722 3.44C20.4922 3.464 20.4042 3.476 20.3082 3.476ZM14.0322 10.616C14.1682 10.616 14.3042 10.584 14.4402 10.52C14.5762 10.464 14.6882 10.4 14.7762 10.328C15.0002 10.144 15.2162 9.912 15.4242 9.632C15.6402 9.36 15.8362 9.06 16.0122 8.732C16.1882 8.412 16.3282 8.088 16.4322 7.76C16.5362 7.424 16.5882 7.112 16.5882 6.824C16.5882 6.52 16.5202 6.256 16.3842 6.032C16.2562 5.808 16.0402 5.644 15.7362 5.54C15.7282 5.54 15.7202 5.54 15.7122 5.54C15.7042 5.532 15.6922 5.528 15.6762 5.528L15.4122 5.792C15.2282 6.08 15.0042 6.436 14.7402 6.86C14.4762 7.276 14.2362 7.708 14.0202 8.156C13.9722 8.252 13.9002 8.404 13.8042 8.612C13.7082 8.828 13.6202 9.056 13.5402 9.296C13.4682 9.544 13.4322 9.772 13.4322 9.98C13.4322 10.156 13.4762 10.304 13.5642 10.424C13.6522 10.552 13.8082 10.616 14.0322 10.616ZM21.082 11.156C21.05 11.156 21.01 11.148 20.962 11.132C20.794 11.06 20.638 10.992 20.494 10.928C20.358 10.864 20.29 10.72 20.29 10.496C20.29 10.384 20.322 10.24 20.386 10.064C20.45 9.896 20.566 9.624 20.734 9.248C20.782 9.144 20.858 8.976 20.962 8.744C21.074 8.512 21.206 8.244 21.358 7.94C21.518 7.628 21.69 7.308 21.874 6.98C22.058 6.652 22.25 6.34 22.45 6.044C22.354 6.156 22.218 6.32 22.042 6.536C21.874 6.744 21.682 6.96 21.466 7.184C21.258 7.4 21.054 7.588 20.854 7.748C20.662 7.9 20.494 7.976 20.35 7.976C20.198 7.976 20.086 7.904 20.014 7.76C19.942 7.616 19.906 7.48 19.906 7.352C19.906 7.144 19.974 6.904 20.11 6.632C20.246 6.36 20.422 6.084 20.638 5.804C20.862 5.524 21.106 5.268 21.37 5.036C21.634 4.796 21.894 4.604 22.15 4.46C22.406 4.316 22.634 4.244 22.834 4.244C23.026 4.244 23.186 4.312 23.314 4.448C23.45 4.576 23.518 4.736 23.518 4.928C23.518 4.96 23.51 5.008 23.494 5.072C23.486 5.136 23.454 5.168 23.398 5.168C23.366 5.168 23.322 5.14 23.266 5.084C23.218 5.028 23.15 4.972 23.062 4.916C22.982 4.86 22.87 4.832 22.726 4.832C22.526 4.832 22.322 4.896 22.114 5.024C21.914 5.144 21.726 5.288 21.55 5.456C21.382 5.624 21.238 5.78 21.118 5.924C21.038 6.02 20.93 6.156 20.794 6.332C20.666 6.5 20.55 6.676 20.446 6.86C20.35 7.044 20.302 7.204 20.302 7.34C20.302 7.452 20.35 7.508 20.446 7.508C20.462 7.508 20.486 7.504 20.518 7.496C20.558 7.488 20.586 7.48 20.602 7.472C20.77 7.384 20.954 7.252 21.154 7.076C21.362 6.892 21.566 6.692 21.766 6.476C21.974 6.26 22.166 6.044 22.342 5.828C22.526 5.612 22.674 5.42 22.786 5.252C22.842 5.252 22.918 5.26 23.014 5.276C23.118 5.284 23.21 5.304 23.29 5.336C23.378 5.368 23.422 5.42 23.422 5.492C23.422 5.524 23.41 5.56 23.386 5.6C23.322 5.712 23.246 5.824 23.158 5.936C23.078 6.04 23.002 6.148 22.93 6.26C22.77 6.492 22.574 6.788 22.342 7.148C22.11 7.5 21.878 7.88 21.646 8.288C21.422 8.704 21.234 9.112 21.082 9.512C20.93 9.912 20.854 10.276 20.854 10.604C20.854 10.796 20.89 10.892 20.962 10.892C21.034 10.9 21.154 10.904 21.322 10.904C21.338 10.904 21.354 10.904 21.37 10.904C21.394 10.904 21.41 10.908 21.418 10.916C21.45 10.924 21.466 10.948 21.466 10.988C21.466 11.06 21.418 11.104 21.322 11.12C21.226 11.144 21.146 11.156 21.082 11.156Z" fill="black"/>
</svg>
